<?xml version="1.0" standalone="no"?>
<!DOCTYPE svg PUBLIC "-//W3C//DTD SVG 20010904//EN"
 "http://www.w3.org/TR/2001/REC-SVG-20010904/DTD/svg10.dtd">
<svg version="1.0" xmlns="http://www.w3.org/2000/svg"
 width="1220.000000pt" height="1195.000000pt" viewBox="0 0 1220.000000 1195.000000"
 preserveAspectRatio="xMidYMid meet">
<metadata>
Created by potrace 1.16, written by Peter Selinger 2001-2019
</metadata>
<g transform="translate(0.000000,1195.000000) scale(0.100000,-0.100000)"
fill="#000000" stroke="none">
<path d="M3375 10744 c-120 -18 -253 -57 -346 -100 -41 -19 -79 -34 -85 -33
-10 3 -49 -23 -221 -149 -62 -46 -113 -87 -113 -91 0 -4 -15 -15 -32 -26 -18
-10 -49 -35 -69 -54 -20 -20 -65 -61 -100 -91 -78 -68 -230 -212 -226 -216 1
-1 27 4 57 12 39 11 79 14 134 9 64 -5 98 -1 180 19 56 13 135 29 176 36 41 6
128 20 192 30 261 41 610 50 858 20 250 -29 511 -81 663 -131 48 -16 96 -29
107 -29 11 0 75 -22 142 -50 67 -27 127 -50 134 -50 18 0 260 -119 421 -207
99 -54 239 -142 266 -167 16 -14 34 -26 41 -26 7 0 27 -13 46 -30 23 -20 40
-28 55 -24 14 3 29 -3 46 -19 18 -18 34 -24 64 -23 22 1 51 -5 63 -13 18 -11
26 -11 31 -3 5 8 16 2 36 -18 16 -17 35 -28 42 -26 7 3 13 -1 13 -9 0 -8 9
-15 19 -15 11 0 23 -4 26 -10 3 -5 16 -10 28 -10 12 0 37 -13 56 -29 32 -27
34 -31 43 -126 4 -54 10 -100 11 -101 1 -1 29 23 62 53 145 135 341 303 352
303 4 0 28 18 52 39 24 22 56 45 70 53 24 12 93 60 134 94 9 8 22 14 28 14 7
0 33 16 60 35 26 19 85 53 130 76 45 22 88 47 95 53 7 7 27 18 46 25 18 7 80
35 138 61 58 27 116 52 130 56 14 3 63 22 110 42 47 19 121 45 165 57 44 12
139 38 210 58 72 19 164 41 205 47 41 6 128 20 192 30 356 56 766 49 1118 -20
58 -11 117 -20 133 -20 15 0 60 -10 100 -21 53 -16 104 -22 197 -23 91 -2 136
-7 165 -19 37 -16 34 -11 -50 70 -97 95 -169 159 -265 238 -33 28 -80 66 -103
86 -23 19 -87 68 -142 109 -55 40 -116 85 -135 99 -19 14 -38 25 -43 23 -4 -1
-42 14 -85 34 -86 41 -255 87 -382 105 -179 25 -469 1 -792 -66 -491 -103
-1218 -390 -1808 -715 -52 -29 -99 -52 -105 -52 -5 0 -53 23 -105 52 -998 550
-2063 863 -2635 774z"/>
<path d="M7619 8423 c-49 -113 -319 -768 -344 -834 l-17 -46 214 -215 c117
-119 240 -246 273 -283 33 -37 69 -77 81 -89 11 -11 82 -95 157 -186 75 -91
157 -189 182 -219 25 -30 45 -60 45 -66 0 -7 9 -20 21 -31 12 -10 48 -57 82
-104 33 -47 69 -93 79 -103 10 -10 18 -23 18 -30 0 -7 20 -37 45 -67 25 -30
48 -65 51 -77 4 -13 9 -23 13 -23 3 0 19 -21 36 -48 16 -26 35 -53 42 -60 7
-7 13 -18 13 -24 0 -6 15 -31 34 -57 43 -60 112 -175 215 -362 13 -23 30 -49
37 -57 8 -7 14 -21 14 -31 0 -10 10 -33 23 -52 32 -48 77 -130 77 -141 0 -5
23 -50 50 -100 28 -50 50 -95 50 -101 0 -5 23 -54 50 -108 28 -54 50 -103 50
-109 0 -6 18 -50 41 -98 23 -48 51 -116 64 -152 13 -36 39 -103 59 -150 20
-46 36 -90 36 -97 0 -7 23 -70 50 -140 28 -70 50 -134 50 -143 0 -8 23 -82 50
-164 28 -82 50 -157 50 -166 0 -10 22 -96 50 -191 27 -96 50 -183 50 -194 0
-23 74 -351 91 -405 6 -19 17 -49 24 -65 41 -91 57 -135 86 -232 62 -214 72
-268 73 -423 1 -164 -13 -228 -79 -355 l-37 -70 64 60 c184 174 284 279 521
546 22 25 41 56 42 70 2 13 15 52 29 87 181 424 33 1183 -421 2165 -422 915
-1110 2028 -1907 3087 -158 211 -433 559 -518 658 l-38 43 -21 -48z"/>
<path d="M4488 8348 c-136 -164 -217 -267 -423 -537 -78 -103 -318 -430 -383
-522 -32 -46 -76 -109 -97 -139 -311 -439 -763 -1153 -998 -1575 -359 -645
-570 -1095 -738 -1570 -229 -647 -281 -1200 -140 -1501 17 -35 28 -70 25 -77
-2 -7 15 -33 38 -60 24 -26 62 -68 84 -95 117 -134 286 -309 443 -457 61 -58
63 -58 37 -19 -14 22 -29 49 -31 60 -3 10 -14 44 -25 75 -30 88 -43 193 -36
299 9 141 68 381 127 520 17 41 47 147 66 235 19 88 41 187 49 220 8 33 19 87
24 120 5 33 28 123 51 200 23 77 44 154 46 170 2 17 26 98 53 180 26 83 55
173 63 200 8 28 30 86 47 130 18 44 34 91 37 105 2 14 8 34 13 45 5 11 23 54
40 95 17 41 35 83 40 92 6 10 10 25 10 34 0 8 23 63 50 121 28 58 50 110 50
116 0 6 23 58 52 116 178 366 263 529 314 607 19 28 34 56 34 62 0 6 21 44 47
84 26 40 57 92 70 116 12 23 31 52 42 63 11 12 25 35 32 53 8 17 19 38 26 46
39 49 83 111 83 119 0 4 21 38 48 74 26 36 67 95 92 131 25 36 48 65 53 66 4
0 7 6 7 13 0 6 23 38 50 70 28 32 50 63 50 67 0 5 19 31 43 58 23 27 74 89
112 138 107 136 229 276 298 343 26 26 47 51 47 55 0 5 42 50 93 102 50 51
106 108 123 126 16 18 78 79 136 134 l106 101 -68 169 c-37 93 -109 268 -159
389 -51 121 -104 248 -118 283 -14 34 -29 62 -34 62 -4 0 -50 -51 -101 -112z"/>
</g>
</svg>
