<?xml version="1.0" standalone="no"?>
<!DOCTYPE svg PUBLIC "-//W3C//DTD SVG 20010904//EN"
 "http://www.w3.org/TR/2001/REC-SVG-20010904/DTD/svg10.dtd">
<svg version="1.0" xmlns="http://www.w3.org/2000/svg"
 width="800.000000pt" height="600.000000pt" viewBox="0 0 800.000000 600.000000"
 preserveAspectRatio="xMidYMid meet">

<g transform="translate(0.000000,600.000000) scale(0.100000,-0.100000)"
fill="#000000" stroke="none">
<path d="M4312 4670 c-32 -27 -76 -71 -97 -97 l-39 -48 51 47 c28 25 73 58
101 72 75 38 76 32 3 -11 -37 -22 -88 -66 -123 -105 -33 -38 -66 -68 -74 -68
-8 0 -14 -8 -14 -18 0 -10 -82 -115 -183 -233 -101 -118 -468 -549 -817 -959
-348 -410 -697 -819 -775 -910 -177 -207 -185 -218 -201 -277 -12 -44 -13 -45
-13 -15 -2 68 -25 38 534 693 204 239 528 619 720 844 192 226 384 452 428
503 43 50 76 92 73 92 -2 0 -67 -73 -143 -162 -541 -638 -1470 -1717 -1504
-1748 -9 -8 -41 -50 -72 -92 -60 -80 -67 -107 -46 -166 23 -66 39 -72 899
-302 107 -29 200 -57 205 -62 7 -7 3 -8 -10 -5 -11 3 -238 65 -505 137 -267
72 -498 136 -514 142 -16 6 -42 22 -57 36 l-29 24 31 -74 c31 -72 54 -108 70
-108 5 0 -2 25 -16 55 -13 30 -21 55 -17 54 4 0 241 -64 527 -142 l519 -142
27 -63 c26 -63 44 -90 54 -81 3 3 -6 32 -19 65 -13 32 -21 60 -17 62 4 1 34
-4 66 -11 l59 -13 24 -60 c13 -32 29 -63 35 -67 47 -33 307 60 307 110 0 7
-11 39 -23 71 l-24 58 54 58 53 59 10 -29 c6 -16 19 -47 29 -69 15 -32 20 -37
26 -23 4 11 -3 43 -18 80 -14 35 -22 68 -19 74 4 6 423 500 932 1098 l925
1087 17 -38 c10 -21 22 -51 28 -67 7 -22 13 -27 21 -19 8 8 4 30 -15 82 l-27
70 47 58 c26 32 50 59 54 61 4 1 15 -22 25 -53 11 -30 23 -55 28 -55 15 0 1
92 -26 165 -25 69 -26 69 -27 30 0 -47 -43 -126 -91 -170 l-33 -30 36 46 c20
25 47 67 59 92 l23 47 -20 27 c-12 16 -38 38 -60 50 -21 12 -295 99 -609 193
-452 137 -587 174 -650 179 l-80 6 60 6 60 6 -77 1 -76 2 -60 -50z m268 -70
c36 -11 71 -23 78 -25 10 -4 10 -11 -4 -34 -22 -38 -13 -75 23 -89 16 -6 84
-28 153 -49 68 -21 117 -39 107 -41 -12 -3 -17 -14 -19 -45 -3 -75 4 -162 14
-175 10 -12 7 -87 -10 -244 -7 -64 -10 -71 -69 -142 -35 -41 -63 -79 -63 -85
0 -25 31 -8 78 44 48 52 60 55 34 9 -6 -12 -8 -24 -5 -28 3 -3 -1 -6 -9 -6 -9
0 -21 -7 -28 -15 -11 -13 -10 -21 8 -45 18 -24 23 -52 33 -187 13 -171 11
-189 -23 -243 -12 -19 -22 -38 -23 -42 0 -4 -60 -80 -133 -169 -103 -124 -137
-159 -150 -154 -15 6 -143 45 -617 190 -116 36 -206 68 -168 61 21 -4 22 -3 8
17 -8 12 -15 31 -15 42 0 12 -5 26 -11 32 -7 7 -8 20 -3 34 10 30 7 105 -5
127 -6 10 -5 24 1 37 6 11 13 29 15 40 9 61 18 87 51 162 27 60 43 82 59 85
35 8 48 -8 48 -54 0 -36 3 -43 20 -43 14 0 24 13 38 49 10 27 25 55 34 61 10
7 14 19 10 29 -4 10 1 21 13 28 25 16 27 83 4 109 -9 10 -13 23 -9 29 10 16
87 50 97 44 4 -3 8 -21 8 -40 0 -36 5 -40 30 -24 10 6 20 3 33 -11 12 -13 31
-19 63 -19 39 0 51 5 81 35 42 42 41 73 -1 94 -39 18 -96 1 -130 -40 l-26 -31
0 35 c0 32 3 35 60 60 33 14 60 30 60 36 0 19 -19 22 -47 8 -15 -8 -38 -18
-50 -21 -21 -7 -23 -4 -23 27 0 44 -22 54 -51 24 -14 -15 -19 -32 -17 -54 4
-30 1 -33 -42 -49 -25 -9 -54 -24 -64 -33 -16 -13 -18 -13 -11 -1 5 8 8 25 6
37 -1 13 7 36 18 52 12 17 17 32 12 35 -11 7 -6 71 13 163 7 38 9 64 3 66 -5
1 3 17 18 35 15 18 24 32 22 32 -3 0 -87 -94 -187 -210 -99 -115 -183 -210
-186 -210 -3 0 41 54 98 121 57 66 182 214 278 327 146 171 184 211 229 234
66 35 145 37 241 8z m1210 -381 c0 -9 -9 -27 -21 -40 -19 -23 -20 -23 -10 -2
6 12 11 37 11 55 0 25 3 29 10 18 5 -8 10 -22 10 -31z m-112 -197 c-31 -44
-1839 -2161 -1850 -2168 -16 -9 -118 -130 822 976 992 1166 1029 1210 1036
1210 3 0 -1 -8 -8 -18z m-1340 -124 c4 -22 -41 -52 -68 -43 -26 8 -26 30 3 50
27 19 61 16 65 -7z m-608 -1 c0 -2 -12 -14 -27 -28 l-28 -24 24 28 c23 25 31
32 31 24z m-100 -117 c-29 -33 -57 -63 -64 -67 -6 -4 15 23 48 60 32 37 61 67
63 67 3 0 -18 -27 -47 -60z m-70 -83 c0 -2 -15 -16 -32 -33 l-33 -29 29 33
c28 30 36 37 36 29z m-60 -70 c0 -2 -12 -14 -27 -28 l-28 -24 24 28 c23 25 31
32 31 24z m381 -594 c379 -114 689 -210 689 -213 0 -4 -46 -60 -101 -124 -83
-97 -105 -117 -123 -112 -122 31 -1376 413 -1376 419 0 14 195 237 209 237 7
0 323 -93 702 -207z m229 -394 c135 -39 246 -72 247 -73 1 -1 -15 -21 -35 -45
l-37 -42 -180 55 c-206 63 -219 67 -222 81 -8 35 -32 89 -44 97 -19 13 -18 12
271 -73z m-784 -10 c3 -6 1 -16 -5 -22 -9 -9 -11 -8 -6 6 5 12 2 17 -10 17
-13 0 -16 -6 -11 -25 4 -14 2 -25 -4 -25 -5 0 -10 5 -10 11 0 8 -6 7 -17 -2
-11 -9 -10 -3 6 19 23 33 44 41 57 21z m41 -16 c-11 -3 -16 -11 -13 -18 3 -10
0 -12 -11 -8 -12 5 -15 2 -10 -10 4 -11 1 -17 -8 -17 -8 0 -15 3 -15 7 0 14
44 53 59 52 12 -1 11 -2 -2 -6z m71 -24 c3 -11 2 -11 -7 1 -9 13 -13 12 -33
-7 -12 -12 -18 -26 -14 -30 4 -4 14 0 21 10 7 10 16 14 19 9 8 -14 -21 -35
-39 -28 -20 7 -19 18 6 45 22 24 40 24 47 0z m8 -37 l-29 -27 23 32 c13 18 26
30 29 28 3 -3 -8 -18 -23 -33z m80 17 c4 -8 0 -9 -15 -4 -12 3 -21 2 -21 -3 0
-6 5 -12 12 -14 6 -2 8 -10 4 -16 -8 -14 -56 -16 -56 -3 0 4 12 6 28 3 24 -5
25 -3 14 11 -8 9 -11 21 -7 27 8 13 32 13 41 -1z m55 -14 c21 -8 27 -14 16
-15 -10 0 -15 -4 -12 -10 3 -5 -1 -10 -9 -10 -9 0 -16 -4 -16 -10 0 -5 5 -10
12 -10 6 0 9 -3 5 -6 -3 -4 -14 -4 -23 0 -15 6 -15 9 6 31 19 21 21 25 7 25
-9 0 -22 -9 -29 -20 -7 -11 -17 -20 -22 -20 -5 0 -2 8 7 18 10 10 17 24 17 30
0 15 1 15 41 -3z m85 -26 c3 -6 -5 -23 -20 -37 -23 -23 -26 -24 -26 -8 0 16
-2 17 -17 5 -11 -9 -10 -3 6 19 23 33 44 41 57 21z m116 -736 c-26 -36 -77
-83 -122 -113 -19 -13 3 13 50 58 47 44 86 81 88 82 2 0 -6 -12 -16 -27z
m-178 -158 c-10 -8 -23 -14 -29 -14 -5 -1 1 8 15 19 14 10 27 17 29 14 3 -2
-4 -11 -15 -19z m-269 -17 c13 -5 9 -6 -15 -2 -19 4 -42 10 -50 15 -18 11 34
1 65 -13z"/>
<path d="M4430 4561 c-14 -27 -13 -31 7 -31 9 0 31 -5 49 -12 27 -9 38 -9 59
2 36 19 31 28 -20 36 -25 3 -48 10 -51 15 -9 15 -33 10 -44 -10z m110 -25 c0
-2 -7 -7 -16 -10 -8 -3 -12 -2 -9 4 6 10 25 14 25 6z"/>
<path d="M4031 3944 c0 -11 3 -14 6 -6 3 7 2 16 -1 19 -3 4 -6 -2 -5 -13z"/>
<path d="M4434 3896 c-33 -15 -74 -60 -74 -82 0 -19 38 -41 85 -48 38 -7 42
-5 73 35 38 50 40 72 10 93 -27 19 -53 20 -94 2z m66 -45 c0 -34 -48 -57 -76
-36 -18 13 -18 14 0 34 25 27 76 29 76 2z"/>
<path d="M4595 3848 c-71 -39 -87 -96 -34 -118 21 -9 39 -10 57 -4 32 11 31
29 -1 30 -27 1 -47 11 -47 24 0 4 21 2 47 -6 61 -18 60 -19 78 16 14 28 14 31
-5 50 -22 22 -64 26 -95 8z m65 -40 c0 -6 -7 -7 -16 -4 -9 3 -21 6 -27 6 -7 0
-7 4 2 9 16 10 41 4 41 -11z"/>
<path d="M4732 3804 c-28 -19 -28 -32 0 -61 21 -23 21 -23 1 -23 -11 0 -26 6
-33 14 -13 17 -40 10 -40 -10 0 -19 40 -44 70 -44 57 0 93 57 50 80 -11 6 -20
15 -20 19 0 5 9 7 20 4 11 -3 20 -9 20 -14 0 -5 9 -9 20 -9 13 0 20 7 20 20 0
38 -67 53 -108 24z"/>
<path d="M4235 3220 c4 -6 11 -8 16 -5 14 9 11 15 -7 15 -8 0 -12 -5 -9 -10z"/>
<path d="M3518 2993 c-35 -24 -48 -43 -30 -43 4 0 18 -3 32 -6 20 -5 22 -3 10
5 -13 10 -11 14 13 32 25 20 36 40 20 38 -5 0 -25 -12 -45 -26z"/>
<path d="M3608 2962 c-37 -23 -35 -40 6 -47 33 -7 51 -1 91 30 17 14 18 17 5
25 -23 15 -72 11 -102 -8z m82 4 c0 -3 -13 -14 -30 -26 -37 -26 -64 -16 -29
11 21 17 59 26 59 15z"/>
<path d="M3715 2925 c-25 -21 -28 -26 -15 -35 17 -11 51 -13 74 -4 23 9 20 24
-4 24 -11 0 -20 -4 -20 -10 0 -5 -7 -10 -15 -10 -23 0 -18 16 12 35 21 14 30
15 45 6 26 -16 47 -13 24 4 -29 22 -67 18 -101 -10z"/>
<path d="M3820 2890 c-19 -16 -29 -29 -22 -30 12 0 92 49 92 56 0 14 -42 -1
-70 -26z"/>
<path d="M3878 2883 c-21 -14 -38 -30 -38 -34 0 -13 13 -11 38 7 20 14 22 14
22 -4 0 -32 11 -32 58 0 44 30 46 51 3 29 -27 -15 -30 -14 -24 9 7 27 -13 25
-59 -7z"/>
<path d="M3635 2519 c-4 -6 -5 -13 -2 -16 7 -7 27 6 27 18 0 12 -17 12 -25 -2z"/>
<path d="M4159 4503 c-13 -16 -12 -17 4 -4 9 7 17 15 17 17 0 8 -8 3 -21 -13z"/>
<path d="M5321 4476 c2 -2 92 -29 199 -61 212 -62 246 -76 272 -109 10 -11 18
-16 18 -10 0 21 -39 60 -77 77 -21 9 -120 37 -220 62 -177 44 -201 49 -192 41z"/>
<path d="M4034 4358 l-29 -33 33 29 c30 28 37 36 29 36 -2 0 -16 -15 -33 -32z"/>
<path d="M3974 4288 l-29 -33 33 29 c30 28 37 36 29 36 -2 0 -16 -15 -33 -32z"/>
<path d="M3914 4218 l-29 -33 33 29 c17 17 32 31 32 33 0 8 -8 1 -36 -29z"/>
<path d="M2333 1803 c9 -9 19 -14 23 -11 10 10 -6 28 -24 28 -15 0 -15 -1 1
-17z"/>
<path d="M2380 1795 c0 -8 7 -15 16 -15 14 0 14 3 4 15 -7 8 -14 15 -16 15 -2
0 -4 -7 -4 -15z"/>
<path d="M2430 1775 c7 -8 16 -12 21 -9 13 8 1 24 -18 24 -13 0 -13 -3 -3 -15z"/>
<path d="M2482 1769 c2 -7 10 -15 17 -17 8 -3 12 1 9 9 -2 7 -10 15 -17 17 -8
3 -12 -1 -9 -9z"/>
<path d="M2530 1757 c0 -8 7 -17 15 -21 8 -3 15 -2 15 3 0 5 -7 14 -15 21 -12
10 -15 10 -15 -3z"/>
<path d="M2630 1731 c0 -12 29 -35 36 -28 11 10 -5 37 -21 37 -8 0 -15 -4 -15
-9z"/>
<path d="M2706 1722 c-13 -22 25 -49 98 -67 42 -10 79 -16 82 -12 15 14 -29
45 -88 62 -34 9 -67 19 -74 22 -7 2 -14 0 -18 -5z"/>
<path d="M2920 1651 c0 -12 29 -35 36 -28 11 10 -5 37 -21 37 -8 0 -15 -4 -15
-9z"/>
<path d="M3050 1605 c7 -8 16 -12 21 -9 13 8 1 24 -18 24 -13 0 -13 -3 -3 -15z"/>
<path d="M3092 1599 c2 -7 10 -15 17 -17 8 -3 12 1 9 9 -2 7 -10 15 -17 17 -8
3 -12 -1 -9 -9z"/>
<path d="M3142 1589 c2 -7 10 -15 17 -17 8 -3 12 1 9 9 -2 7 -10 15 -17 17 -8
3 -12 -1 -9 -9z"/>
</g>
</svg>
